<?xml version="1.0" encoding="UTF-8" ?>
<!DOCTYPE svg PUBLIC "-//W3C//DTD SVG 1.1//EN" "http://www.w3.org/Graphics/SVG/1.1/DTD/svg11.dtd">
<svg width="48px" height="48px" viewBox="0 0 165 165" version="1.1" xmlns="http://www.w3.org/2000/svg">
<g id="#ffffffff">
<path fill="#ffffff" opacity="1.00" d=" M 25.98 0.00 L 137.29 0.00 C 152.50 0.65 164.41 15.02 165.00 29.74 L 165.00 81.37 C 164.17 80.19 163.09 78.99 161.54 78.97 C 157.71 78.76 153.81 78.57 150.00 79.13 C 147.27 79.47 147.38 82.68 146.97 84.74 C 144.79 84.74 142.62 84.74 140.45 84.74 C 140.47 79.41 140.45 74.09 140.47 68.76 C 141.94 68.78 143.41 68.79 144.89 68.81 C 146.81 71.57 149.29 74.61 152.99 74.60 C 158.91 75.00 163.66 68.57 162.02 62.99 C 161.03 58.02 155.22 54.38 150.42 56.49 C 147.91 57.32 146.44 59.67 144.92 61.66 C 143.43 61.68 141.94 61.69 140.45 61.71 C 140.32 57.92 140.95 53.99 139.83 50.32 C 138.59 46.65 134.81 44.21 130.98 44.38 C 120.33 44.27 109.67 44.49 99.02 44.28 C 102.22 40.00 108.34 37.00 107.93 30.90 C 109.87 29.20 112.09 27.48 112.77 24.86 C 114.49 19.90 111.17 13.84 105.95 12.86 C 100.17 11.54 94.66 17.33 95.51 23.03 C 95.59 26.77 98.69 29.21 101.36 31.33 C 98.35 35.67 92.57 38.55 92.37 44.39 C 90.19 44.37 88.01 44.35 85.83 44.34 C 85.85 37.23 85.83 30.12 85.84 23.02 C 87.79 22.55 90.69 22.75 91.19 20.21 C 91.54 16.13 91.39 12.01 91.31 7.91 C 91.54 6.00 90.02 4.04 88.02 4.10 C 84.36 3.88 80.68 3.88 77.02 4.10 C 75.00 4.03 73.44 5.98 73.67 7.92 C 73.58 12.00 73.43 16.09 73.80 20.16 C 74.22 22.73 77.16 22.55 79.12 23.00 C 79.17 30.11 79.13 37.23 79.14 44.34 C 76.96 44.35 74.77 44.37 72.59 44.39 C 72.62 38.47 66.42 35.97 63.94 31.31 C 66.27 28.92 69.46 26.70 69.49 22.99 C 70.23 17.64 65.51 12.22 60.03 12.70 C 54.35 13.11 50.37 19.56 52.23 24.86 C 52.90 27.48 55.13 29.17 57.04 30.89 C 56.66 36.99 62.76 39.99 65.96 44.27 C 55.01 44.53 44.05 44.20 33.10 44.43 C 28.97 44.53 25.38 47.93 24.75 51.96 C 24.34 55.19 24.56 58.46 24.54 61.70 C 23.06 61.69 21.59 61.68 20.11 61.67 C 18.48 59.44 16.76 56.91 13.89 56.24 C 9.23 54.72 4.02 58.28 3.05 62.95 C 1.41 68.50 6.08 74.95 11.98 74.60 C 15.72 74.65 18.22 71.59 20.15 68.81 C 21.61 68.79 23.07 68.77 24.53 68.76 C 24.55 74.09 24.53 79.41 24.55 84.74 C 22.37 84.74 20.20 84.74 18.03 84.75 C 17.65 82.67 17.77 79.44 15.01 79.11 C 11.21 78.59 7.32 78.75 3.51 78.98 C 1.82 78.98 0.80 80.33 0.00 81.63 L 0.00 29.78 C 0.31 15.55 10.99 0.79 25.98 0.00 Z" />
<path fill="#ffffff" opacity="1.00" d=" M 80.48 11.24 C 81.81 11.24 83.15 11.24 84.48 11.24 C 84.48 12.69 84.48 14.13 84.48 15.57 C 83.15 15.57 81.81 15.57 80.48 15.57 C 80.48 14.13 80.48 12.69 80.48 11.24 Z" />
<path fill="#ffffff" opacity="1.00" d=" M 58.72 20.92 C 59.34 20.54 60.58 19.78 61.20 19.40 C 61.84 20.52 62.45 21.67 63.00 22.84 C 62.30 23.38 61.61 23.91 60.92 24.45 C 60.19 24.03 59.45 23.62 58.73 23.21 C 58.72 22.44 58.72 21.68 58.72 20.92 Z" />
<path fill="#ffffff" opacity="1.00" d=" M 102.08 22.89 C 102.20 20.55 104.24 19.04 106.27 20.64 C 106.27 21.49 106.28 22.33 106.29 23.18 C 105.55 23.61 104.81 24.04 104.07 24.45 C 103.40 23.93 102.74 23.41 102.08 22.89 Z" />
<path fill="#ffffff" opacity="1.00" d=" M 31.52 53.08 C 31.75 51.94 33.03 51.45 34.09 51.56 C 44.53 51.49 54.98 51.56 65.42 51.54 C 65.42 52.90 65.43 54.27 65.44 55.64 C 62.34 55.86 58.83 56.12 56.77 58.77 C 53.83 61.89 54.63 66.42 54.53 70.32 C 48.85 70.31 43.17 70.33 37.48 70.30 C 35.47 68.09 33.43 65.91 31.37 63.74 C 31.43 60.19 31.15 56.62 31.52 53.08 Z" />
<path fill="#ffffff" opacity="1.00" d=" M 72.24 51.53 C 74.54 51.53 76.84 51.54 79.14 51.56 C 79.14 52.96 79.15 54.35 79.15 55.75 C 76.85 55.79 74.56 55.81 72.26 55.82 C 72.26 54.39 72.25 52.96 72.24 51.53 Z" />
<path fill="#ffffff" opacity="1.00" d=" M 85.83 51.56 C 88.13 51.54 90.43 51.53 92.73 51.53 C 92.72 52.96 92.71 54.39 92.71 55.82 C 90.41 55.81 88.12 55.79 85.83 55.75 C 85.83 54.36 85.83 52.96 85.83 51.56 Z" />
<path fill="#ffffff" opacity="1.00" d=" M 99.55 51.54 C 109.99 51.56 120.42 51.50 130.86 51.56 C 131.95 51.44 133.19 51.90 133.51 53.05 C 133.82 56.61 133.57 60.20 133.63 63.77 C 131.56 65.95 129.51 68.15 127.44 70.33 C 121.77 70.30 116.11 70.32 110.45 70.32 C 110.34 66.43 111.19 61.89 108.24 58.77 C 106.16 56.11 102.63 55.85 99.53 55.64 C 99.54 54.27 99.55 52.90 99.55 51.54 Z" />
<path fill="#ffffff" opacity="1.00" d=" M 10.23 66.74 C 9.02 65.86 9.58 63.47 11.07 63.26 C 12.93 62.44 13.50 64.93 14.03 66.12 C 12.92 66.59 11.20 68.39 10.23 66.74 Z" />
<path fill="#ffffff" opacity="1.00" d=" M 61.53 63.35 C 75.50 63.04 89.50 63.02 103.47 63.36 C 103.50 78.10 103.65 92.84 103.44 107.58 C 89.48 107.83 75.50 107.87 61.54 107.55 C 61.31 92.82 61.34 78.08 61.53 63.35 M 71.42 78.82 C 71.41 81.02 71.34 83.21 71.34 85.40 C 69.85 83.20 68.37 81.00 66.89 78.81 C 65.43 78.80 63.98 78.79 62.52 78.80 C 62.46 83.59 62.48 88.38 62.50 93.17 C 64.05 93.16 65.60 93.16 67.15 93.16 C 67.14 91.03 67.17 88.91 67.18 86.79 C 68.67 88.92 70.11 91.08 71.63 93.20 C 73.13 93.17 74.62 93.16 76.12 93.14 C 76.09 88.34 76.31 83.53 75.83 78.75 C 74.36 78.78 72.89 78.80 71.42 78.82 M 78.20 78.80 C 78.13 83.60 78.16 88.40 78.17 93.20 C 79.62 93.18 81.08 93.23 82.54 93.08 C 83.91 91.73 82.90 89.37 83.20 87.61 C 84.91 87.60 86.61 87.60 88.32 87.60 C 88.32 86.74 88.31 85.03 88.31 84.17 C 86.61 84.17 84.91 84.16 83.21 84.17 C 83.20 83.77 83.16 82.97 83.15 82.57 C 85.19 82.57 87.22 82.52 89.27 82.50 C 89.26 81.58 89.24 79.74 89.24 78.82 C 85.56 78.78 81.88 78.79 78.20 78.80 M 89.74 78.82 C 89.71 80.14 89.68 81.46 89.67 82.79 C 91.08 82.92 92.50 83.05 93.91 83.18 C 94.11 86.45 93.25 90.01 94.39 93.10 C 95.87 93.22 97.37 93.18 98.85 93.20 C 98.87 89.88 98.87 86.56 98.86 83.24 C 100.32 83.07 101.79 82.89 103.26 82.72 C 103.10 81.40 102.93 80.09 102.74 78.79 C 98.41 78.80 94.07 78.78 89.74 78.82 Z" />
<path fill="#ffffff" opacity="1.00" d=" M 151.03 66.16 C 151.52 65.02 152.12 62.35 153.91 63.27 C 155.96 63.50 155.87 66.56 154.22 67.33 C 153.01 67.64 152.07 66.58 151.03 66.16 Z" />
<path fill="#ffffff" opacity="1.00" d=" M 31.35 84.74 C 31.36 81.18 31.37 77.62 31.34 74.07 C 32.54 75.19 33.69 76.39 35.07 77.31 C 41.55 77.65 48.06 77.34 54.55 77.45 C 54.54 79.88 54.54 82.31 54.55 84.74 C 46.81 84.75 39.08 84.75 31.35 84.74 Z" />
<path fill="#ffffff" opacity="1.00" d=" M 133.65 74.09 C 133.62 77.64 133.63 81.19 133.65 84.74 C 125.91 84.75 118.17 84.75 110.44 84.74 C 110.44 82.31 110.44 79.88 110.43 77.45 C 116.95 77.34 123.49 77.66 130.00 77.31 C 131.35 76.39 132.47 75.20 133.65 74.09 Z" />
<path fill="#ffffff" opacity="1.00" d=" M 6.80 86.24 C 8.14 86.22 9.49 86.20 10.84 86.19 C 10.85 87.62 10.86 89.05 10.87 90.48 C 9.51 90.47 8.15 90.46 6.80 90.46 C 6.80 89.05 6.80 87.64 6.80 86.24 Z" />
<path fill="#ffffff" opacity="1.00" d=" M 154.17 86.19 C 155.52 86.20 156.87 86.21 158.22 86.23 C 158.21 87.64 158.21 89.05 158.22 90.47 C 156.86 90.47 155.50 90.47 154.15 90.47 C 154.15 89.04 154.16 87.62 154.17 86.19 Z" />
<path fill="#ffffff" opacity="1.00" d=" M 18.06 91.84 C 20.22 91.84 22.37 91.83 24.52 91.83 C 24.55 97.13 24.53 102.44 24.55 107.74 C 23.05 107.73 21.56 107.72 20.07 107.72 C 18.34 105.25 16.26 102.49 13.00 102.19 C 8.53 101.35 4.06 104.60 3.08 108.95 C 1.34 114.54 6.10 121.17 12.09 120.68 C 15.77 120.71 18.26 117.69 20.13 114.91 C 21.60 114.89 23.06 114.88 24.52 114.87 C 24.63 119.87 24.33 124.87 24.67 129.85 C 25.05 134.50 29.34 138.24 34.00 137.99 C 45.40 138.21 56.81 137.98 68.21 138.09 C 68.20 139.52 68.20 140.95 68.21 142.38 C 63.84 142.44 59.47 142.23 55.10 142.45 C 53.24 142.32 51.85 144.15 51.86 145.90 C 51.70 149.99 51.60 154.10 51.95 158.18 C 52.18 160.11 54.09 161.20 55.92 160.99 C 73.65 161.01 91.38 161.01 109.11 160.98 C 110.91 161.21 112.81 160.11 113.04 158.21 C 113.38 154.14 113.28 150.04 113.14 145.96 C 113.16 144.28 111.93 142.42 110.11 142.47 C 105.67 142.21 101.22 142.44 96.77 142.38 C 96.77 140.95 96.77 139.51 96.77 138.08 C 108.19 137.99 119.61 138.21 131.03 137.99 C 135.70 138.25 140.03 134.47 140.35 129.80 C 140.64 124.83 140.37 119.85 140.47 114.87 C 141.95 114.88 143.43 114.89 144.91 114.91 C 146.68 117.40 148.76 120.23 152.05 120.59 C 156.75 121.48 161.37 117.75 162.14 113.16 C 163.38 107.70 158.77 101.59 153.00 102.10 C 149.34 102.02 146.81 104.94 144.97 107.72 C 143.46 107.73 141.96 107.73 140.45 107.74 C 140.47 102.44 140.45 97.13 140.48 91.83 C 142.63 91.83 144.78 91.84 146.93 91.84 C 147.42 93.78 147.19 96.50 149.43 97.41 C 153.54 97.91 157.74 97.70 161.88 97.56 C 163.22 97.56 164.03 96.29 165.00 95.56 L 165.00 135.64 C 164.82 149.94 153.33 163.82 138.77 165.00 L 26.23 165.00 C 11.25 164.58 -0.02 149.97 0.00 135.62 L 0.00 94.92 C 0.88 95.94 1.42 97.68 3.06 97.54 C 7.22 97.72 11.45 97.89 15.59 97.41 C 17.87 96.54 17.59 93.78 18.06 91.84 Z" />
<path fill="#ffffff" opacity="1.00" d=" M 31.33 102.64 C 31.37 99.03 31.35 95.43 31.38 91.83 C 39.10 91.84 46.81 91.84 54.52 91.83 C 54.54 94.28 54.54 96.73 54.52 99.19 C 48.04 99.28 41.54 98.96 35.07 99.33 C 33.59 100.13 32.55 101.50 31.33 102.64 Z" />
<path fill="#ffffff" opacity="1.00" d=" M 110.47 99.19 C 110.44 96.74 110.44 94.28 110.46 91.83 C 118.18 91.84 125.89 91.84 133.61 91.83 C 133.65 95.42 133.63 99.02 133.66 102.61 C 132.22 101.43 131.14 99.33 129.09 99.24 C 122.89 99.08 116.67 99.23 110.47 99.19 Z" />
<path fill="#ffffff" opacity="1.00" d=" M 37.53 106.33 C 43.12 106.25 48.72 106.33 54.32 106.27 C 54.80 110.66 58.18 115.15 62.97 114.86 C 75.98 114.91 89.00 114.91 102.02 114.86 C 106.81 115.16 110.21 110.67 110.68 106.27 C 116.27 106.33 121.85 106.25 127.44 106.32 C 129.45 108.59 131.83 110.56 133.55 113.05 C 133.74 115.14 133.63 117.24 133.64 119.33 C 125.46 119.33 117.29 119.33 109.12 119.33 C 109.13 121.70 109.13 124.07 109.12 126.44 C 117.37 126.48 125.62 126.38 133.88 126.50 C 133.66 127.75 133.50 129.02 133.21 130.27 C 131.88 130.87 130.40 130.75 128.98 130.79 C 97.32 130.73 65.67 130.81 34.02 130.75 C 31.38 131.24 31.36 128.33 31.08 126.52 C 52.09 126.33 73.11 126.52 94.12 126.43 C 94.12 124.07 94.12 121.72 94.13 119.37 C 73.21 119.28 52.29 119.35 31.37 119.34 C 31.37 117.19 31.35 115.04 31.34 112.90 C 33.41 110.71 35.49 108.54 37.53 106.33 M 98.34 119.26 C 98.34 121.68 98.34 124.10 98.34 126.52 C 100.60 126.52 102.87 126.51 105.13 126.49 C 105.13 124.09 105.13 121.70 105.13 119.30 C 102.87 119.28 100.60 119.26 98.34 119.26 Z" />
<path fill="#ffffff" opacity="1.00" d=" M 9.74 110.58 C 10.11 108.55 13.84 108.93 13.56 111.07 C 14.17 112.76 11.95 113.29 10.93 113.97 C 10.46 112.89 9.27 111.85 9.74 110.58 Z" />
<path fill="#ffffff" opacity="1.00" d=" M 153.12 113.46 C 150.94 113.38 150.75 109.38 153.05 109.32 C 154.89 108.66 155.13 111.05 155.90 112.08 C 154.97 112.51 154.22 113.56 153.12 113.46 Z" />
<path fill="#ffffff" opacity="1.00" d=" M 74.89 138.12 C 79.90 138.03 84.90 138.08 89.90 138.07 C 89.90 139.51 89.90 140.94 89.90 142.38 C 84.90 142.38 79.90 142.39 74.90 142.36 C 74.90 140.94 74.90 139.53 74.89 138.12 Z" />
<path fill="#ffffff" opacity="1.00" d=" M 58.65 149.50 C 74.54 149.51 90.43 149.50 106.33 149.50 C 106.32 150.93 106.32 152.37 106.32 153.80 C 90.43 153.79 74.54 153.79 58.66 153.80 C 58.65 152.37 58.65 150.93 58.65 149.50 Z" />
</g>
<g id="#000000ff">
<path fill="#000000" opacity="1.00" d=" M 73.67 7.92 C 73.44 5.98 75.00 4.03 77.02 4.10 C 80.68 3.88 84.36 3.88 88.02 4.10 C 90.02 4.04 91.54 6.00 91.31 7.91 C 91.39 12.01 91.54 16.13 91.19 20.21 C 90.69 22.75 87.79 22.55 85.84 23.02 C 85.83 30.12 85.85 37.23 85.83 44.34 C 88.01 44.35 90.19 44.37 92.37 44.39 C 92.57 38.55 98.35 35.67 101.36 31.33 C 98.69 29.21 95.59 26.77 95.51 23.03 C 94.66 17.33 100.17 11.54 105.95 12.86 C 111.17 13.84 114.49 19.90 112.77 24.86 C 112.09 27.48 109.87 29.20 107.93 30.90 C 108.34 37.00 102.22 40.00 99.02 44.28 C 109.67 44.49 120.33 44.27 130.98 44.38 C 134.81 44.21 138.59 46.65 139.83 50.32 C 140.95 53.99 140.32 57.92 140.45 61.71 C 141.94 61.69 143.43 61.68 144.92 61.66 C 146.44 59.67 147.91 57.32 150.42 56.49 C 155.22 54.38 161.03 58.02 162.02 62.99 C 163.66 68.57 158.91 75.00 152.99 74.60 C 149.29 74.61 146.81 71.57 144.89 68.81 C 143.41 68.79 141.94 68.78 140.47 68.76 C 140.45 74.09 140.47 79.41 140.45 84.74 C 142.62 84.74 144.79 84.74 146.97 84.74 C 147.38 82.68 147.27 79.47 150.00 79.13 C 153.81 78.57 157.71 78.76 161.54 78.97 C 163.09 78.99 164.17 80.19 165.00 81.37 L 165.00 95.56 C 164.03 96.29 163.22 97.56 161.88 97.56 C 157.74 97.70 153.54 97.91 149.43 97.41 C 147.19 96.50 147.42 93.78 146.93 91.84 C 144.78 91.84 142.63 91.83 140.48 91.83 C 140.45 97.13 140.47 102.44 140.45 107.74 C 141.96 107.73 143.46 107.73 144.97 107.72 C 146.81 104.94 149.34 102.02 153.00 102.10 C 158.77 101.59 163.38 107.70 162.14 113.16 C 161.37 117.75 156.75 121.48 152.05 120.59 C 148.76 120.23 146.68 117.40 144.91 114.91 C 143.43 114.89 141.95 114.88 140.47 114.87 C 140.37 119.85 140.64 124.83 140.35 129.80 C 140.03 134.47 135.70 138.25 131.03 137.99 C 119.61 138.21 108.19 137.99 96.77 138.08 C 96.77 139.51 96.77 140.95 96.77 142.38 C 101.22 142.44 105.67 142.21 110.11 142.47 C 111.93 142.42 113.16 144.28 113.14 145.96 C 113.28 150.04 113.38 154.14 113.04 158.21 C 112.81 160.11 110.91 161.21 109.11 160.98 C 91.38 161.01 73.65 161.01 55.92 160.99 C 54.09 161.20 52.18 160.11 51.95 158.18 C 51.60 154.10 51.70 149.99 51.86 145.90 C 51.85 144.15 53.24 142.32 55.10 142.45 C 59.47 142.23 63.84 142.44 68.21 142.38 C 68.20 140.95 68.20 139.52 68.21 138.09 C 56.81 137.98 45.40 138.21 34.00 137.99 C 29.34 138.24 25.05 134.50 24.67 129.85 C 24.33 124.87 24.63 119.87 24.52 114.87 C 23.06 114.88 21.60 114.89 20.13 114.91 C 18.26 117.69 15.77 120.71 12.09 120.68 C 6.10 121.17 1.34 114.54 3.08 108.95 C 4.06 104.60 8.53 101.35 13.00 102.19 C 16.26 102.49 18.34 105.25 20.07 107.72 C 21.56 107.72 23.05 107.73 24.55 107.74 C 24.53 102.44 24.55 97.13 24.52 91.83 C 22.37 91.83 20.22 91.84 18.06 91.84 C 17.59 93.78 17.87 96.54 15.59 97.41 C 11.45 97.89 7.22 97.72 3.06 97.54 C 1.42 97.68 0.88 95.94 0.00 94.92 L 0.00 81.63 C 0.80 80.33 1.82 78.98 3.51 78.98 C 7.32 78.75 11.21 78.59 15.01 79.11 C 17.77 79.44 17.65 82.67 18.03 84.75 C 20.20 84.74 22.37 84.74 24.55 84.74 C 24.53 79.41 24.55 74.09 24.53 68.76 C 23.07 68.77 21.61 68.79 20.15 68.81 C 18.22 71.59 15.72 74.65 11.98 74.60 C 6.08 74.95 1.41 68.50 3.05 62.95 C 4.02 58.28 9.23 54.72 13.89 56.24 C 16.76 56.91 18.48 59.44 20.11 61.67 C 21.59 61.68 23.06 61.69 24.54 61.70 C 24.56 58.46 24.34 55.19 24.75 51.96 C 25.38 47.93 28.97 44.53 33.10 44.43 C 44.05 44.20 55.01 44.53 65.96 44.27 C 62.76 39.99 56.66 36.99 57.04 30.89 C 55.13 29.17 52.90 27.48 52.23 24.86 C 50.37 19.56 54.35 13.11 60.03 12.70 C 65.51 12.22 70.23 17.64 69.49 22.99 C 69.46 26.70 66.27 28.92 63.94 31.31 C 66.42 35.97 72.62 38.47 72.59 44.39 C 74.77 44.37 76.96 44.35 79.14 44.34 C 79.13 37.23 79.17 30.11 79.12 23.00 C 77.16 22.55 74.22 22.73 73.80 20.16 C 73.43 16.09 73.58 12.00 73.67 7.92 M 80.48 11.24 C 80.48 12.69 80.48 14.13 80.48 15.57 C 81.81 15.57 83.15 15.57 84.48 15.57 C 84.48 14.13 84.48 12.69 84.48 11.24 C 83.15 11.24 81.81 11.24 80.48 11.24 M 58.72 20.92 C 58.72 21.68 58.72 22.44 58.73 23.21 C 59.45 23.62 60.19 24.03 60.92 24.45 C 61.61 23.91 62.30 23.38 63.00 22.84 C 62.45 21.67 61.84 20.52 61.20 19.40 C 60.58 19.78 59.34 20.54 58.72 20.92 M 102.08 22.89 C 102.74 23.41 103.40 23.93 104.07 24.45 C 104.81 24.04 105.55 23.61 106.29 23.18 C 106.28 22.33 106.27 21.49 106.27 20.64 C 104.24 19.04 102.20 20.55 102.08 22.89 M 31.52 53.08 C 31.15 56.62 31.43 60.19 31.37 63.74 C 33.43 65.91 35.47 68.09 37.48 70.30 C 43.17 70.33 48.85 70.31 54.53 70.32 C 54.63 66.42 53.83 61.89 56.77 58.77 C 58.83 56.12 62.34 55.86 65.44 55.64 C 65.43 54.27 65.42 52.90 65.42 51.54 C 54.98 51.56 44.53 51.49 34.09 51.56 C 33.03 51.45 31.75 51.94 31.52 53.08 M 72.24 51.53 C 72.25 52.96 72.26 54.39 72.26 55.82 C 74.56 55.81 76.85 55.79 79.15 55.75 C 79.15 54.35 79.14 52.96 79.14 51.56 C 76.84 51.54 74.54 51.53 72.24 51.53 M 85.83 51.56 C 85.83 52.96 85.83 54.36 85.83 55.75 C 88.12 55.79 90.41 55.81 92.71 55.82 C 92.71 54.39 92.72 52.96 92.73 51.53 C 90.43 51.53 88.13 51.54 85.83 51.56 M 99.55 51.54 C 99.55 52.90 99.54 54.27 99.53 55.64 C 102.63 55.85 106.16 56.11 108.24 58.77 C 111.19 61.89 110.34 66.43 110.45 70.32 C 116.11 70.32 121.77 70.30 127.44 70.33 C 129.51 68.15 131.56 65.95 133.63 63.77 C 133.57 60.20 133.82 56.61 133.51 53.05 C 133.19 51.90 131.95 51.44 130.86 51.56 C 120.42 51.50 109.99 51.56 99.55 51.54 M 10.23 66.74 C 11.20 68.39 12.92 66.59 14.03 66.12 C 13.50 64.93 12.93 62.44 11.07 63.26 C 9.58 63.47 9.02 65.86 10.23 66.74 M 61.53 63.35 C 61.34 78.08 61.31 92.82 61.54 107.55 C 75.50 107.87 89.48 107.83 103.44 107.58 C 103.65 92.84 103.50 78.10 103.47 63.36 C 89.50 63.02 75.50 63.04 61.53 63.35 M 151.03 66.16 C 152.07 66.58 153.01 67.64 154.22 67.33 C 155.87 66.56 155.96 63.50 153.91 63.27 C 152.12 62.35 151.52 65.02 151.03 66.16 M 31.35 84.74 C 39.08 84.75 46.81 84.75 54.55 84.74 C 54.54 82.31 54.54 79.88 54.55 77.45 C 48.06 77.34 41.55 77.65 35.07 77.31 C 33.69 76.39 32.54 75.19 31.34 74.07 C 31.37 77.62 31.36 81.18 31.35 84.74 M 133.65 74.09 C 132.47 75.20 131.35 76.39 130.00 77.31 C 123.49 77.66 116.95 77.34 110.43 77.45 C 110.44 79.88 110.44 82.31 110.44 84.74 C 118.17 84.75 125.91 84.75 133.65 84.74 C 133.63 81.19 133.62 77.64 133.65 74.09 M 6.80 86.24 C 6.80 87.64 6.80 89.05 6.80 90.46 C 8.15 90.46 9.51 90.47 10.87 90.48 C 10.86 89.05 10.85 87.62 10.84 86.19 C 9.49 86.20 8.14 86.22 6.80 86.24 M 154.17 86.19 C 154.16 87.62 154.15 89.04 154.15 90.47 C 155.50 90.47 156.86 90.47 158.22 90.47 C 158.21 89.05 158.21 87.64 158.22 86.23 C 156.87 86.21 155.52 86.20 154.17 86.19 M 31.33 102.64 C 32.55 101.50 33.59 100.13 35.07 99.33 C 41.54 98.96 48.04 99.28 54.52 99.19 C 54.54 96.73 54.54 94.28 54.52 91.83 C 46.81 91.84 39.10 91.84 31.38 91.83 C 31.35 95.43 31.37 99.03 31.33 102.64 M 110.47 99.19 C 116.67 99.23 122.89 99.08 129.09 99.24 C 131.14 99.33 132.22 101.43 133.66 102.61 C 133.63 99.02 133.65 95.42 133.61 91.83 C 125.89 91.84 118.18 91.84 110.46 91.83 C 110.44 94.28 110.44 96.74 110.47 99.19 M 37.53 106.33 C 35.49 108.54 33.41 110.71 31.34 112.90 C 31.35 115.04 31.37 117.19 31.37 119.34 C 52.29 119.35 73.21 119.28 94.13 119.37 C 94.12 121.72 94.12 124.07 94.12 126.43 C 73.11 126.52 52.09 126.33 31.08 126.52 C 31.36 128.33 31.38 131.24 34.02 130.75 C 65.67 130.81 97.32 130.73 128.98 130.79 C 130.40 130.75 131.88 130.87 133.21 130.27 C 133.50 129.02 133.66 127.75 133.88 126.50 C 125.62 126.38 117.37 126.48 109.12 126.44 C 109.13 124.07 109.13 121.70 109.12 119.33 C 117.29 119.33 125.46 119.33 133.64 119.33 C 133.63 117.24 133.74 115.14 133.55 113.05 C 131.83 110.56 129.45 108.59 127.44 106.32 C 121.85 106.25 116.27 106.33 110.68 106.27 C 110.21 110.67 106.81 115.16 102.02 114.86 C 89.00 114.91 75.98 114.91 62.97 114.86 C 58.18 115.15 54.80 110.66 54.32 106.27 C 48.72 106.33 43.12 106.25 37.53 106.33 M 9.74 110.58 C 9.27 111.85 10.46 112.89 10.93 113.97 C 11.95 113.29 14.17 112.76 13.56 111.07 C 13.84 108.93 10.11 108.55 9.74 110.58 M 153.12 113.46 C 154.22 113.56 154.97 112.51 155.90 112.08 C 155.13 111.05 154.89 108.66 153.05 109.32 C 150.75 109.38 150.94 113.38 153.12 113.46 M 74.89 138.12 C 74.90 139.53 74.90 140.94 74.90 142.36 C 79.90 142.39 84.90 142.38 89.90 142.38 C 89.90 140.94 89.90 139.51 89.90 138.07 C 84.90 138.08 79.90 138.03 74.89 138.12 M 58.65 149.50 C 58.65 150.93 58.65 152.37 58.66 153.80 C 74.54 153.79 90.43 153.79 106.32 153.80 C 106.32 152.37 106.32 150.93 106.33 149.50 C 90.43 149.50 74.54 149.51 58.65 149.50 Z" />
<path fill="#000000" opacity="1.00" d=" M 71.42 78.82 C 72.89 78.80 74.36 78.78 75.83 78.75 C 76.31 83.53 76.09 88.34 76.12 93.14 C 74.62 93.16 73.13 93.17 71.63 93.20 C 70.11 91.08 68.67 88.92 67.18 86.79 C 67.17 88.91 67.14 91.03 67.15 93.16 C 65.60 93.16 64.05 93.16 62.50 93.17 C 62.48 88.38 62.46 83.59 62.52 78.80 C 63.98 78.79 65.43 78.80 66.89 78.81 C 68.37 81.00 69.85 83.20 71.34 85.40 C 71.34 83.21 71.41 81.02 71.42 78.82 Z" />
<path fill="#000000" opacity="1.00" d=" M 78.20 78.80 C 81.88 78.79 85.56 78.78 89.24 78.82 C 89.24 79.74 89.26 81.58 89.27 82.50 C 87.22 82.52 85.19 82.57 83.15 82.57 C 83.16 82.97 83.20 83.77 83.21 84.17 C 84.91 84.16 86.61 84.17 88.31 84.17 C 88.31 85.03 88.32 86.74 88.32 87.60 C 86.61 87.60 84.91 87.60 83.20 87.61 C 82.90 89.37 83.91 91.73 82.54 93.08 C 81.08 93.23 79.62 93.18 78.17 93.20 C 78.16 88.40 78.13 83.60 78.20 78.80 Z" />
<path fill="#000000" opacity="1.00" d=" M 89.74 78.82 C 94.07 78.78 98.41 78.80 102.74 78.79 C 102.93 80.09 103.10 81.40 103.26 82.72 C 101.79 82.89 100.32 83.07 98.86 83.24 C 98.87 86.56 98.87 89.88 98.85 93.20 C 97.37 93.18 95.87 93.22 94.39 93.10 C 93.25 90.01 94.11 86.45 93.91 83.18 C 92.50 83.05 91.08 82.92 89.67 82.79 C 89.68 81.46 89.71 80.14 89.74 78.82 Z" />
<path fill="#000000" opacity="1.00" d=" M 98.34 119.26 C 100.60 119.26 102.87 119.28 105.13 119.30 C 105.13 121.70 105.13 124.09 105.13 126.49 C 102.87 126.51 100.60 126.52 98.34 126.52 C 98.34 124.10 98.34 121.68 98.34 119.26 Z" />
</g>
</svg>
